<?xml version="1.0" encoding="utf-8"?>
<!-- Generator: Adobe Illustrator 18.0.0, SVG Export Plug-In . SVG Version: 6.00 Build 0)  -->
<!DOCTYPE svg PUBLIC "-//W3C//DTD SVG 1.1//EN" "http://www.w3.org/Graphics/SVG/1.1/DTD/svg11.dtd">
<svg version="1.1" id="Layer_1" xmlns:sketch="http://www.bohemiancoding.com/sketch/ns"
	 xmlns="http://www.w3.org/2000/svg" xmlns:xlink="http://www.w3.org/1999/xlink" x="0px" y="0px" viewBox="18.5 197 480.1 480"
	 enable-background="new 18.5 197 480.1 480" xml:space="preserve">
<title>Imported Layers 9</title>
<desc>Created with Sketch.</desc>
<g id="Page-1" sketch:type="MSPage">
	<path id="Imported-Layers-9" sketch:type="MSShapeGroup" fill="#FFFFFF" d="M495.8,418.5l-14.6-7.3l-16.8-11c0,0,38.6-34.1,23-40.2
		s-39.7-13.4-39.7-13.4S476.2,307,465,304l-11.2-3l-31.4-2.4c0,0,24.6-41.4,5-41.4h-19.6h-14c0,0,11.8-60.3-17.9-36.5
		c-29.7,23.8-48.1,36.5-48.1,36.5s0,0-19.6,15.8c-19.6,15.8-33.6,76.7-38.1,91.4c-0.6,3-1.7,4.9-3.4,6.7
		c-2.8,6.7-7.8,15.2-18.5,21.9c-11.2,6.7-20.2,7.3-26.9,6.1l-2.2-3c7.8,0.6,16.8-0.6,26.9-6.7c5.6-3.7,9.5-7.3,12.9-11.6
		c-5,1.8-11.2,3-17.9,5.5c-14,4.9-14.6,0-14.6,0c-61.6-70.6-131-78-131-78S23.3,290,48.5,332l16.2,15.8c0,0-50.9,11.6-31.4,31.7
		c19.6,20.1,19.6,20.7,19.6,20.7S8.7,424,20.5,433.1l11.8,9.1l20.2,12.2c0,0-33.6,31.7-25.8,37.2c7.8,5.5,36.4,18.9,36.4,18.9
		s-31.4,42.6-6.2,43.2l25.2,0.6h5c0,0-17.4,53.6-7.8,52.4c9.5-1.2,10.1-0.6,10.1-0.6l30.8-3c0,0-21.8,69.4,8.4,53.6l30.2-15.8
		c0,0,87.3-73.1,95.7-120.6c0,0,3.4-37.8,16.2-41.4c0,0,10.6-9.1,33,24.4c0,0,41.4,51.8,117,49.3c0,0,69.4,9.7,56.5-11
		c-12.9-20.7-25.8-35.9-28.6-37.8c0,0,53.7-11.6,42-24.4L479,466.6l-17.9-17.1C459.4,450.8,510.9,426.4,495.8,418.5L495.8,418.5z"/>
</g>
<rect x="18.5" y="197" fill="none" width="480" height="480"/>
</svg>
