<svg xmlns:sketch="http://www.bohemiancoding.com/sketch/ns" xmlns="http://www.w3.org/2000/svg" viewBox="138.5 110 182 182" enable-background="new 138.5 110 182 182"><style type="text/css">.st0{fill:#FFFFFF;} .st1{fill:none;}</style><title>Imported Layers 9</title><desc>Created with Sketch.</desc><path id="Imported-Layers-9" sketch:type="MSShapeGroup" class="st0" d="M319.3 194l-5.5-2.8-6.4-4.2s14.6-12.9 8.7-15.2c-5.9-2.3-15-5.1-15-5.1s10.8-15 6.5-16.1l-4.2-1.1-11.9-.9s9.3-15.7 1.9-15.7h-12.7s4.5-22.8-6.8-13.8l-18.2 13.8-7.4 6c-7.4 6-12.7 29-14.4 34.6-.2 1.1-.6 1.9-1.3 2.5-1.1 2.5-3 5.8-7 8.3-4.2 2.5-7.6 2.8-10.2 2.3l-.8-1.1c3 .2 6.4-.2 10.2-2.5 2.1-1.4 3.6-2.8 4.9-4.4-1.9.7-4.2 1.1-6.8 2.1-5.3 1.9-5.5 0-5.5 0-23.3-26.7-49.6-29.5-49.6-29.5s-27.3-5.8-17.7 10.1l6.1 6s-19.3 4.4-11.9 12 7.4 7.8 7.4 7.8-16.7 9-12.3 12.5l4.5 3.4 7.6 4.6s-12.7 12-9.8 14.1c3 2.1 13.8 7.2 13.8 7.2s-11.9 16.1-2.3 16.3l9.5.2h1.9s-6.6 20.3-3 19.8c3.6-.5 3.8-.2 3.8-.2l11.7-1.1s-8.3 26.3 3.2 20.3l11.4-6s33-27.7 36.2-45.6c0 0 1.3-14.3 6.1-15.7 0 0 4-3.4 12.5 9.2 0 0 15.7 19.6 44.3 18.7 0 0 26.3 3.7 21.4-4.2-4.9-7.8-9.8-13.6-10.8-14.3 0 0 20.3-4.4 15.9-9.2l-4.4-4.8-6.8-6.5c-.6.4 18.9-8.8 13.2-11.8z"/><path class="st1" d="M138.5 110h182v182h-182z"/></svg>