<svg xmlns="http://www.w3.org/2000/svg" width="16" height="16" viewBox="0 0 16 16"><path fill-rule="evenodd" d="M15.908 7.33l-.485-.267-.563-.4s1.286-1.228.766-1.446c-.52-.22-1.32-.486-1.32-.486s.95-1.427.57-1.532l-.37-.104-1.047-.086s.818-1.494.166-1.494H12.51s.395-2.17-.6-1.314l-1.603 1.314-.652.57c-.652.572-1.12 2.76-1.268 3.294-.018.104-.053.18-.115.238-.097.238-.264.552-.616.79-.37.238-.67.267-.898.22l-.07-.106c.264.02.563-.02.898-.238.184-.133.317-.266.43-.418-.166.066-.37.104-.598.2-.466.18-.484 0-.484 0-2.052-2.542-4.368-2.808-4.368-2.808s-2.404-.552-1.56.96l.538.572s-1.7.42-1.048 1.142c.652.724.652.743.652.743s-1.47.857-1.083 1.19l.396.323.67.438S.013 9.766.268 9.966c.265.2 1.216.686 1.216.686s-1.048 1.532-.203 1.55l.837.02h.167s-.58 1.932-.264 1.885c.317-.048.335-.02.335-.02l1.03-.104s-.73 2.503.282 1.932l1.004-.57s2.907-2.638 3.19-4.34c0 0 .113-1.363.536-1.496 0 0 .352-.324 1.1.875 0 0 1.383 1.865 3.902 1.78 0 0 2.316.352 1.885-.4-.432-.743-.863-1.295-.95-1.36 0 0 1.787-.42 1.4-.877l-.388-.457-.6-.618c-.052.04 1.665-.837 1.163-1.123z"/></svg>